<svg width="19" height="19" viewBox="0 0 19 19" fill="none" xmlns="http://www.w3.org/2000/svg">
<path d="M9.65723 18.7334C8.41504 18.7334 7.24609 18.4961 6.15039 18.0215C5.05469 17.5527 4.08789 16.8994 3.25 16.0615C2.41797 15.2236 1.76465 14.2568 1.29004 13.1611C0.81543 12.0654 0.578125 10.8965 0.578125 9.6543C0.578125 8.41211 0.81543 7.24316 1.29004 6.14746C1.76465 5.05176 2.41797 4.08789 3.25 3.25586C4.08789 2.41797 5.05176 1.76172 6.1416 1.28711C7.2373 0.8125 8.40625 0.575195 9.64844 0.575195C10.8965 0.575195 12.0684 0.8125 13.1641 1.28711C14.2598 1.76172 15.2266 2.41797 16.0645 3.25586C16.9023 4.08789 17.5586 5.05176 18.0332 6.14746C18.5078 7.24316 18.7451 8.41211 18.7451 9.6543C18.7451 10.8965 18.5078 12.0654 18.0332 13.1611C17.5586 14.2568 16.9023 15.2236 16.0645 16.0615C15.2266 16.8994 14.2598 17.5527 13.1641 18.0215C12.0684 18.4961 10.8994 18.7334 9.65723 18.7334ZM9.65723 16.9404C10.6709 16.9404 11.6172 16.7529 12.4961 16.3779C13.375 16.0029 14.1484 15.4814 14.8164 14.8135C15.4844 14.1455 16.0059 13.3721 16.3809 12.4932C16.7559 11.6143 16.9434 10.668 16.9434 9.6543C16.9434 8.64648 16.7559 7.70312 16.3809 6.82422C16.0059 5.93945 15.4844 5.16309 14.8164 4.49512C14.1484 3.82715 13.3721 3.30566 12.4873 2.93066C11.6084 2.55566 10.6621 2.36816 9.64844 2.36816C8.64062 2.36816 7.69434 2.55566 6.80957 2.93066C5.93066 3.30566 5.16016 3.82715 4.49805 4.49512C3.83594 5.16309 3.31738 5.93945 2.94238 6.82422C2.56738 7.70312 2.37988 8.64648 2.37988 9.6543C2.37988 10.668 2.56738 11.6143 2.94238 12.4932C3.31738 13.3721 3.83594 14.1455 4.49805 14.8135C5.16602 15.4814 5.93945 16.0029 6.81836 16.3779C7.70312 16.7529 8.64941 16.9404 9.65723 16.9404ZM7.83789 15.2529C7.63281 15.2529 7.46875 15.1973 7.3457 15.0859C7.22852 14.9746 7.17285 14.8223 7.17871 14.6289L7.2666 9.22363C7.2666 9.13574 7.24902 9.0625 7.21387 9.00391C7.18457 8.94531 7.13184 8.89844 7.05566 8.86328C6.7334 8.72266 6.49902 8.55273 6.35254 8.35352C6.20605 8.1543 6.1416 7.83496 6.15918 7.39551L6.29102 4.48633C6.30859 4.24609 6.42285 4.12598 6.63379 4.12598C6.85059 4.12598 6.95898 4.24902 6.95898 4.49512L6.92383 7.3252C6.92383 7.51855 7.00879 7.61523 7.17871 7.61523C7.36621 7.61523 7.45996 7.52441 7.45996 7.34277L7.5127 4.40723C7.5127 4.17871 7.62109 4.06445 7.83789 4.06445C8.06641 4.06445 8.18066 4.17871 8.18066 4.40723L8.22461 7.34277C8.22461 7.52441 8.31543 7.61523 8.49707 7.61523C8.67871 7.61523 8.76953 7.51855 8.76953 7.3252L8.73438 4.49512C8.73438 4.24902 8.83984 4.12598 9.05078 4.12598C9.26172 4.12598 9.37305 4.24609 9.38477 4.48633L9.52539 7.39551C9.54883 7.83496 9.4873 8.1543 9.34082 8.35352C9.19434 8.55273 8.95703 8.72266 8.62891 8.86328C8.48828 8.93359 8.41797 9.05371 8.41797 9.22363L8.50586 14.6289C8.51172 14.8223 8.45312 14.9746 8.33008 15.0859C8.21289 15.1973 8.04883 15.2529 7.83789 15.2529ZM11.2041 11.1572C11.21 10.9756 11.1279 10.8262 10.958 10.709L10.7119 10.5332C10.583 10.4453 10.4863 10.3398 10.4219 10.2168C10.3574 10.0938 10.3252 9.94727 10.3252 9.77734V9.45215C10.3252 8.81934 10.3809 8.18359 10.4922 7.54492C10.6035 6.90039 10.7559 6.30273 10.9492 5.75195C11.1426 5.20117 11.3711 4.74707 11.6348 4.38965C11.7812 4.17285 11.9336 4.06445 12.0918 4.06445C12.1855 4.06445 12.2676 4.09668 12.3379 4.16113C12.4082 4.21973 12.4434 4.31055 12.4434 4.43359V14.6465C12.4434 14.8398 12.3818 14.9893 12.2588 15.0947C12.1416 15.2002 11.9775 15.2529 11.7666 15.2529C11.5615 15.2529 11.3975 15.1973 11.2744 15.0859C11.1514 14.9746 11.0928 14.8135 11.0986 14.6025L11.2041 11.1572Z" fill="white" fill-opacity="0.5"/>
</svg>
