<svg width="16" height="21" viewBox="0 0 16 21" fill="none" xmlns="http://www.w3.org/2000/svg">
<path d="M10.1973 4.73926C9.83398 4.73926 9.50293 4.65137 9.2041 4.47559C8.91113 4.29395 8.67383 4.05664 8.49219 3.76367C8.31641 3.46484 8.22852 3.13379 8.22852 2.77051C8.22852 2.40137 8.31641 2.07031 8.49219 1.77734C8.67383 1.47852 8.91113 1.24121 9.2041 1.06543C9.50293 0.883789 9.83398 0.792969 10.1973 0.792969C10.5605 0.792969 10.8916 0.883789 11.1904 1.06543C11.4893 1.24121 11.7266 1.47852 11.9023 1.77734C12.084 2.07031 12.1748 2.40137 12.1748 2.77051C12.1748 3.13379 12.084 3.46484 11.9023 3.76367C11.7266 4.05664 11.4893 4.29395 11.1904 4.47559C10.8916 4.65137 10.5605 4.73926 10.1973 4.73926ZM7.12988 12.4912C6.93652 12.3857 6.74023 12.2744 6.54102 12.1572C6.3418 12.0342 6.16602 11.8877 6.01367 11.7178C5.86133 11.5479 5.75879 11.334 5.70605 11.0762C5.65918 10.8184 5.68848 10.4961 5.79395 10.1094L6.52344 7.56934C6.57031 7.41113 6.54395 7.28809 6.44434 7.2002C6.35059 7.1123 6.23633 7.07422 6.10156 7.08594L4.87109 7.17383L4.49316 9.74023C4.45801 10.0273 4.3584 10.2412 4.19434 10.3818C4.03613 10.5225 3.82812 10.5811 3.57031 10.5576C3.31836 10.5342 3.12793 10.4316 2.99902 10.25C2.87012 10.0625 2.82324 9.8252 2.8584 9.53809L3.27148 6.36523C3.3125 6.10156 3.41504 5.89062 3.5791 5.73242C3.74316 5.57422 3.9541 5.48633 4.21191 5.46875L7.33203 5.24902C8.15234 5.19043 8.83203 5.27832 9.37109 5.5127C9.91016 5.74121 10.3848 6.13379 10.7949 6.69043L12.3242 8.7998L14.5303 7.82422C14.7881 7.70703 15.0195 7.68066 15.2246 7.74512C15.4355 7.80957 15.5996 7.95898 15.7168 8.19336C15.8281 8.42773 15.8398 8.65039 15.752 8.86133C15.6641 9.06641 15.4912 9.22754 15.2334 9.34473L12.4121 10.6016C12.2188 10.6895 12.0195 10.707 11.8145 10.6543C11.6152 10.5957 11.457 10.4814 11.3398 10.3115L10.3643 8.87012C10.2705 8.74121 10.1562 8.68555 10.0215 8.70312C9.88672 8.71484 9.7959 8.79688 9.74902 8.94922L9.09863 11.2344L12.4121 13.4141C12.5879 13.5254 12.7109 13.6748 12.7812 13.8623C12.8574 14.0498 12.8779 14.2402 12.8428 14.4336C12.8076 14.627 12.7168 14.7852 12.5703 14.9082L9.50293 17.5273C9.25684 17.7383 9.00781 17.835 8.75586 17.8174C8.50977 17.8057 8.30762 17.7119 8.14941 17.5361C7.99707 17.3604 7.92969 17.1523 7.94727 16.9121C7.96484 16.6719 8.09375 16.4492 8.33398 16.2441L10.4961 14.3896L7.12988 12.4912ZM1.1709 20.1729C0.977539 20.0088 0.87207 19.792 0.854492 19.5225C0.836914 19.2588 0.945312 19.0127 1.17969 18.7842L4.16797 15.8047L5.20508 12.1309C5.36914 12.3301 5.57129 12.5234 5.81152 12.7109C6.05762 12.8984 6.35059 13.0859 6.69043 13.2734L7.01562 13.4492L5.83789 16.5166C5.76172 16.7041 5.69727 16.8359 5.64453 16.9121C5.5918 16.9824 5.50391 17.0762 5.38086 17.1934L2.49805 20.0498C2.27539 20.2725 2.04102 20.3867 1.79492 20.3926C1.55469 20.3984 1.34668 20.3252 1.1709 20.1729Z" fill="#1791EA"/>
</svg>
